<svg width="42" height="25" viewBox="0 0 42 25" fill="none" xmlns="http://www.w3.org/2000/svg">
<path d="M6.94112 1.8167C7.2108 1.63692 7.34564 1.54702 7.49152 1.48334C7.62101 1.42682 7.75669 1.38573 7.89579 1.36094C8.05249 1.33301 8.21455 1.33301 8.53866 1.33301H33.4613C33.7855 1.33301 33.9475 1.33301 34.1042 1.36094C34.2433 1.38573 34.379 1.42682 34.5085 1.48334C34.6544 1.54702 34.7892 1.63692 35.0589 1.8167L39.7175 4.92248C40.1864 5.23507 40.4209 5.39136 40.5906 5.59786C40.7408 5.78067 40.8536 5.99131 40.9223 6.21773C41 6.47349 41 6.75525 41 7.31878V20.6752C41 21.6833 41 22.1874 40.8038 22.5724C40.6312 22.9111 40.3559 23.1865 40.0172 23.359C39.6321 23.5552 39.1281 23.5552 38.12 23.5552H3.88C2.87191 23.5552 2.36786 23.5552 1.98282 23.359C1.64413 23.1865 1.36876 22.9111 1.19619 22.5724C1 22.1874 1 21.6833 1 20.6752V7.31878C1 6.75525 1 6.47349 1.07767 6.21773C1.14643 5.99131 1.25917 5.78067 1.40942 5.59786C1.57914 5.39136 1.81358 5.23507 2.28246 4.92248L6.94112 1.8167Z" stroke="white" stroke-width="2"/>
<path d="M1 22.6659V9.26035C1 9.17751 1.06716 9.11035 1.15 9.11035H10.6696C11.5305 9.11035 12.2947 9.66121 12.567 10.4779L13.8775 14.4095C14.1497 15.2262 14.914 15.777 15.7749 15.777H26.2251C27.086 15.777 27.8503 15.2262 28.1225 14.4095L29.433 10.4779C29.7053 9.66121 30.4695 9.11035 31.3304 9.11035H40.85C40.9328 9.11035 41 9.17751 41 9.26035V22.6659C41 23.7705 40.1046 24.6659 39 24.6659H3C1.89543 24.6659 1 23.7705 1 22.6659Z" fill="white"/>
</svg>
