<svg width="31" height="31" viewBox="0 0 31 31" fill="none" xmlns="http://www.w3.org/2000/svg">
<path d="M2.05664 7.32851C2.05664 7.12413 2.05664 7.02194 2.0947 6.93006C2.13276 6.83817 2.20502 6.76592 2.34953 6.6214L5.84087 3.13007C6.41893 2.55201 6.70796 2.26298 7.0755 2.11074C7.44304 1.9585 7.85179 1.9585 8.66929 1.9585H21.8749C22.6924 1.9585 23.1012 1.9585 23.4687 2.11074C23.8362 2.26298 24.1253 2.55201 24.7033 3.13007L28.1947 6.6214C28.3392 6.76592 28.4114 6.83817 28.4495 6.93006C28.4876 7.02194 28.4876 7.12413 28.4876 7.32851V8.56623H2.05664V7.32851Z" stroke="#007AFF" stroke-width="2"/>
<path fill-rule="evenodd" clip-rule="evenodd" d="M30.1391 8.56641H0.404297V26.0415C0.404297 27.9271 0.404297 28.87 0.990083 29.4557C1.57587 30.0415 2.51868 30.0415 4.40429 30.0415H26.1391C28.0247 30.0415 28.9675 30.0415 29.5533 29.4557C30.1391 28.87 30.1391 27.9271 30.1391 26.0415V8.56641ZM11.3159 13.5222C11.3159 12.9699 10.8682 12.5222 10.3159 12.5222C9.76361 12.5222 9.31589 12.9699 9.31589 13.5222C9.31589 15.1018 9.94338 16.6167 11.0603 17.7336C12.1772 18.8505 13.6921 19.478 15.2717 19.478C16.8513 19.478 18.3661 18.8505 19.4831 17.7336C20.6 16.6167 21.2275 15.1018 21.2275 13.5222C21.2275 12.9699 20.7798 12.5222 20.2275 12.5222C19.6752 12.5222 19.2275 12.9699 19.2275 13.5222C19.2275 14.5713 18.8107 15.5775 18.0689 16.3194C17.327 17.0612 16.3208 17.478 15.2717 17.478C14.2225 17.478 13.2164 17.0612 12.4745 16.3194C11.7327 15.5775 11.3159 14.5713 11.3159 13.5222Z" fill="#007AFF"/>
</svg>
