<svg width="56" height="71" viewBox="0 0 56 71" fill="none" xmlns="http://www.w3.org/2000/svg">
<path fill-rule="evenodd" clip-rule="evenodd" d="M18.4409 18.4409C22.4558 18.4409 25.8713 15.8749 27.1369 12.2933H43.0289V6.14637H27.1365C25.8705 2.56548 22.4553 0 18.4409 0C13.3486 0 9.22043 4.12815 9.22043 9.22047C9.22043 14.3128 13.3486 18.4409 18.4409 18.4409ZM39.9548 12.2945H33.8083V18.441H39.9548V12.2945ZM21.5139 9.21963C21.5139 10.9169 20.138 12.2929 18.4407 12.2929C16.7433 12.2929 15.3674 10.9169 15.3674 9.21963C15.3674 7.52231 16.7433 6.14637 18.4407 6.14637C20.138 6.14637 21.5139 7.52231 21.5139 9.21963ZM0 46.1034V67.6179C0 69.3083 1.38307 70.6914 3.07349 70.6914H6.14698C7.8374 70.6914 9.22047 69.3083 9.22047 67.6179V64.5444H46.1024V67.6179C46.1024 69.3083 47.4854 70.6914 49.1758 70.6914H52.2493C53.9398 70.6914 55.3228 69.3083 55.3228 67.6179V46.1034L50.4496 29.0473C49.6957 26.4084 47.2837 24.589 44.5392 24.589H36.8819H18.4409H10.7837C8.03915 24.589 5.62716 26.4084 4.87319 29.0473L0 46.1034ZM6.14698 53.7872C6.14698 56.3382 8.20622 58.3974 10.7572 58.3974C13.3082 58.3974 15.3675 56.3382 15.3675 53.7872C15.3675 51.2362 13.3082 49.1769 10.7572 49.1769C8.20622 49.1769 6.14698 51.2362 6.14698 53.7872ZM39.9554 53.7872C39.9554 56.3382 42.0146 58.3974 44.5656 58.3974C47.1166 58.3974 49.1758 56.3382 49.1758 53.7872C49.1758 51.2362 47.1166 49.1769 44.5656 49.1769C42.0146 49.1769 39.9554 51.2362 39.9554 53.7872ZM8.14924 39.9565H47.1736L44.5392 30.736H10.7837L8.14924 39.9565Z" fill="#007AFF"/>
</svg>
