<svg width="32" height="32" viewBox="0 0 32 32" fill="none" xmlns="http://www.w3.org/2000/svg">
<path opacity="0.1" fill-rule="evenodd" clip-rule="evenodd" d="M0 16C0 7.16344 7.16344 0 16 0C24.8366 0 32 7.16344 32 16C32 24.8366 24.8366 32 16 32C7.16344 32 0 24.8366 0 16Z" fill="white"/>
<path fill-rule="evenodd" clip-rule="evenodd" d="M24.5335 15.9883C24.5335 16.5654 24.4747 17.1417 24.3593 17.7034C24.2468 18.2518 24.0801 18.7902 23.8618 19.3049C23.6485 19.8105 23.3839 20.2977 23.0747 20.7521C22.7701 21.2036 22.4192 21.6271 22.0338 22.0133C21.6475 22.3977 21.2225 22.7476 20.7712 23.0535C20.3154 23.3605 19.8275 23.6247 19.3216 23.8391C18.8061 24.0562 18.2665 24.2227 17.7186 24.335C17.1561 24.4507 16.5777 24.5098 15.9997 24.5098C15.4214 24.5098 14.843 24.4507 14.2813 24.335C13.7326 24.2227 13.1929 24.0562 12.6779 23.8391C12.1721 23.6247 11.6837 23.3605 11.2278 23.0535C10.7766 22.7476 10.3516 22.3977 9.96611 22.0133C9.58027 21.6271 9.2294 21.2036 8.92439 20.7521C8.61687 20.2977 8.35184 19.8105 8.13768 19.3049C7.9193 18.7902 7.75224 18.2518 7.63931 17.7034C7.52515 17.1417 7.4668 16.5654 7.4668 15.9883C7.4668 15.4108 7.52511 14.8332 7.63934 14.2727C7.75227 13.7243 7.91934 13.1851 8.13771 12.6712C8.35187 12.1653 8.6169 11.6776 8.92442 11.2232C9.22943 10.7714 9.5803 10.3486 9.96614 9.96207C10.3516 9.57759 10.7766 9.22852 11.2279 8.92312C11.6837 8.61478 12.1721 8.35059 12.6779 8.13587C13.193 7.91822 13.7326 7.75139 14.2814 7.63989C14.8431 7.52506 15.4214 7.4668 15.9998 7.4668C16.5777 7.4668 17.1561 7.52506 17.7186 7.63989C18.2665 7.75142 18.8061 7.91825 19.3216 8.13587C19.8275 8.35056 20.3154 8.61478 20.7713 8.92312C21.2225 9.22852 21.6476 9.57759 22.0338 9.96207C22.4193 10.3486 22.7701 10.7714 23.0747 11.2232C23.3839 11.6776 23.6485 12.1653 23.8618 12.6712C24.0801 13.1851 24.2468 13.7243 24.3593 14.2727C24.4747 14.8332 24.5335 15.4108 24.5335 15.9883ZM12.8904 9.40618C10.8582 10.3645 9.34143 12.2343 8.86848 14.4879C9.0606 14.4895 12.0974 14.5278 15.5963 13.5995C14.335 11.3618 12.9875 9.53562 12.8904 9.40618ZM16.2001 14.7201C12.4479 15.8418 8.84724 15.7611 8.71808 15.7561C8.71597 15.8343 8.71223 15.91 8.71223 15.9883C8.71223 17.8577 9.41851 19.562 10.5794 20.8507C10.5769 20.8469 12.5712 17.3139 16.5039 16.0441C16.5989 16.0124 16.6956 15.9841 16.7914 15.9567C16.6085 15.5431 16.4089 15.1287 16.2001 14.7201ZM20.8125 10.5267C19.5295 9.39701 17.8448 8.71176 15.9997 8.71176C15.4076 8.71176 14.833 8.78333 14.2825 8.91564C14.3917 9.06212 15.7605 10.8754 17.0068 13.1605C19.7566 12.1312 20.7945 10.5533 20.8125 10.5267ZM17.2882 17.1625C17.2719 17.1679 17.2557 17.1725 17.2398 17.1783C12.9401 18.6751 11.536 21.6915 11.5208 21.7245C12.7579 22.6852 14.3097 23.2648 15.9998 23.2648C17.009 23.2648 17.9703 23.0596 18.8449 22.6881C18.737 22.0523 18.3136 19.8238 17.2882 17.1625ZM20.072 22.0232C21.7083 20.9206 22.8705 19.1697 23.1946 17.1416C23.0446 17.0934 21.0058 16.4489 18.6536 16.8254C19.6095 19.4485 19.9978 21.5847 20.072 22.0232ZM17.5678 14.2449C17.7369 14.5919 17.9007 14.9451 18.0519 15.3001C18.1057 15.4274 18.1582 15.5522 18.2095 15.677C20.7129 15.3625 23.1793 15.8917 23.2847 15.9133C23.2681 14.1883 22.6501 12.6051 21.6276 11.3656C21.6138 11.3851 20.445 13.0715 17.5678 14.2449Z" fill="white"/>
</svg>
