<svg width="53" height="41" viewBox="0 0 53 41" fill="none" xmlns="http://www.w3.org/2000/svg">
<path d="M17.6309 34.2028C17.6309 35.3522 18.5486 36.3542 19.8567 36.633L31.6109 39.1379C33.4655 39.5332 35.2621 38.3374 35.2621 36.7078V6.80221C35.2621 5.65275 34.3444 4.6508 33.0363 4.37202L21.2821 1.86704C19.4274 1.47179 17.6309 2.66756 17.6309 4.29723V34.2028Z" fill="#0040FF"/>
<path fill-rule="evenodd" clip-rule="evenodd" d="M21.4469 2.70928C21.4469 2.23733 21.1169 1.82962 20.6553 1.73125L14.9626 0.518057C14.786 0.480409 14.6024 0.491311 14.4315 0.549605L0.677264 5.23955C0.272258 5.37765 0 5.75814 0 6.18604V39.1427C0 39.8281 0.673966 40.3104 1.32274 40.0892L14.4315 35.6193C14.6024 35.561 14.786 35.5501 14.9627 35.5878L20.2385 36.7121C20.8607 36.8447 21.4469 36.3703 21.4469 35.7341L21.4469 2.70928ZM31.4469 38.2914C31.4469 38.7634 31.7769 39.1711 32.2385 39.2695L37.9311 40.4827C38.1078 40.5203 38.2913 40.5094 38.4623 40.4511L52.2165 35.7612C52.6215 35.6231 52.8938 35.2426 52.8938 34.8147V1.85805C52.8938 1.1726 52.2198 0.69034 51.571 0.91156L38.4623 5.38141C38.2913 5.43971 38.1078 5.45061 37.9311 5.41296L32.6553 4.28862C32.0331 4.15601 31.4469 4.63047 31.4469 5.26665L31.4469 38.2914Z" fill="#7E869E" fill-opacity="0.25"/>
</svg>
