<svg width="72" height="71" viewBox="0 0 72 71" fill="none" xmlns="http://www.w3.org/2000/svg">
<path fill-rule="evenodd" clip-rule="evenodd" d="M0.535156 0H35.8803V21.208H71.2254V70.6912H14.6732V70.6903L14.6732 21.208H28.8112V7.06991H14.6732H7.60417V21.208V70.6903H0.535156V0ZM64.1564 28.2761H50.0183V70.6903H64.1564V28.2761ZM35.8803 28.2761H42.9488V35.3446H35.8803V28.2761ZM28.8107 28.2761H21.7422V35.3446H28.8107V28.2761ZM35.8803 42.4142H42.9488V49.4827H35.8803V42.4142ZM28.8107 42.4142H21.7422V49.4827H28.8107V42.4142ZM35.8803 56.5522H42.9488V63.6207H35.8803V56.5522ZM28.8107 56.5522H21.7422V63.6207H28.8107V56.5522Z" fill="#007AFF"/>
</svg>
