<svg width="74" height="71" viewBox="0 0 74 71" fill="none" xmlns="http://www.w3.org/2000/svg">
<path fill-rule="evenodd" clip-rule="evenodd" d="M21.5142 0H20.5142V2H21.5142H33.8081H34.8081V0H33.8081H21.5142ZM46.1021 0H45.1021V2H46.1021H51.3663L53.1653 16.3921H27.6611H26.9681L26.7248 17.041L21.3738 31.3105C19.5287 30.2648 17.4987 29.6863 15.3675 29.6863C6.88024 29.6863 0 38.8601 0 50.1765C0 61.4929 6.88024 70.6666 15.3675 70.6666C23.6032 70.6666 30.3259 62.0283 30.7169 51.1764H35.3449H35.9218L36.2106 50.6769L53.6748 20.4682L54.8939 30.221C48.0945 32.3346 43.0293 40.4668 43.0293 50.1765C43.0293 61.4929 49.9095 70.6666 58.3968 70.6666C66.884 70.6666 73.7642 61.4929 73.7642 50.1765C73.7642 38.8601 66.884 29.6863 58.3968 29.6863C57.8765 29.6863 57.3623 29.7208 56.8553 29.7881L55.2903 17.2681L53.2413 0.875966L53.1319 0H52.2491H46.1021ZM55.9078 38.3322L57.4038 50.3004L57.5278 51.2927L59.5124 51.0446L59.3883 50.0523L57.8692 37.899C58.0436 37.8858 58.2194 37.8792 58.3963 37.8792C63.4886 37.8792 67.6167 43.3835 67.6167 50.1733C67.6167 56.9631 63.4886 62.4674 58.3963 62.4674C53.3039 62.4674 49.1758 56.9631 49.1758 50.1733C49.1758 44.5331 52.0243 39.7801 55.9078 38.3322ZM30.7169 49.1764H34.7679L52.5649 18.3921H28.3542L23.082 32.4514C27.4555 35.8428 30.4593 42.0295 30.7169 49.1764ZM20.3243 39.8054C22.6903 41.8208 24.3204 45.2366 24.5576 49.1764H16.8102L20.3243 39.8054ZM18.6162 38.6643L14.4309 49.8252L13.9242 51.1764H15.3672H24.5572C24.1744 57.497 20.206 62.4674 15.367 62.4674C10.2746 62.4674 6.14648 56.9631 6.14648 50.1733C6.14648 43.3835 10.2746 37.8792 15.367 37.8792C16.5106 37.8792 17.6056 38.1568 18.6162 38.6643Z" fill="#007AFF"/>
</svg>
