<svg width="62" height="71" viewBox="0 0 62 71" fill="none" xmlns="http://www.w3.org/2000/svg">
<path fill-rule="evenodd" clip-rule="evenodd" d="M12.5586 0H49.4405V21.2999H61.7354V71H0.265625V21.2999H12.5586V0ZM31.001 7.09986L18.707 21.2999V63.8999H24.854V48.1499C24.854 47.0453 25.7494 46.1499 26.854 46.1499H35.148C36.2525 46.1499 37.148 47.0453 37.148 48.1499V63.8999H43.295V21.2999L31.001 7.09986ZM6.41211 46.1501H12.5591V63.9001H6.41211V46.1501ZM12.5586 28.4018H6.41211V39.051H12.5586V28.4018ZM49.4414 46.1501H55.5884V63.9001H49.4414V46.1501ZM55.5879 28.4018H49.4414V39.051H55.5879V28.4018Z" fill="#007AFF"/>
</svg>
