<svg width="63" height="71" viewBox="0 0 63 71" fill="none" xmlns="http://www.w3.org/2000/svg">
<path fill-rule="evenodd" clip-rule="evenodd" d="M23.1602 14.0468C23.1602 10.6261 24.1416 7.57161 25.6774 5.39847C27.215 3.22277 29.246 2 31.3806 2C33.5152 2 35.5462 3.22277 37.0838 5.39847C38.6196 7.57161 39.6011 10.6261 39.6011 14.0468C39.6011 17.4675 38.6196 20.522 37.0838 22.6952C36.3149 23.7832 35.4226 24.633 34.4556 25.2106V22.7425H28.3086V35.7925L28.3079 35.7935L0.646484 61.8871V68.585V70.585H2.64648H60.1163H62.1163V68.585V61.8871L34.4556 35.7941V27.4533C36.1214 26.7376 37.576 25.4641 38.7171 23.8495C40.5185 21.3006 41.6011 17.8317 41.6011 14.0468C41.6011 10.262 40.5185 6.79306 38.7171 4.24419C36.9176 1.69786 34.3383 0 31.3806 0C28.4229 0 25.8437 1.69786 24.0441 4.24419C22.2428 6.79306 21.1602 10.262 21.1602 14.0468H23.1602ZM28.3086 40.1383V38.5423L2.64648 62.7499V68.585H60.1163V62.7499L34.4556 38.5436V40.1383H28.3086Z" fill="#007AFF"/>
</svg>
