<svg width="69" height="71" viewBox="0 0 69 71" fill="none" xmlns="http://www.w3.org/2000/svg">
<path fill-rule="evenodd" clip-rule="evenodd" d="M34.5721 71C53.2439 71 68.3805 55.1061 68.3805 35.5C68.3805 15.8939 53.2439 0 34.5721 0C15.9002 0 0.763672 15.8939 0.763672 35.5C0.763672 55.1061 15.9002 71 34.5721 71ZM34.5718 54.862C44.7565 54.862 53.0127 46.1926 53.0127 35.4984C53.0127 24.8041 44.7565 16.1347 34.5718 16.1347C24.3871 16.1347 16.1309 24.8041 16.1309 35.4984C16.1309 46.1926 24.3871 54.862 34.5718 54.862ZM41.4444 35.5002C42.9046 33.7873 43.7925 31.5252 43.7925 29.0454C43.7925 23.6982 39.6644 19.3635 34.572 19.3635C29.4797 19.3635 25.3516 23.6982 25.3516 29.0454C25.3516 31.5252 26.2394 33.7873 27.6996 35.5002C26.2394 37.2131 25.3516 39.4752 25.3516 41.955C25.3516 47.3021 29.4797 51.6368 34.572 51.6368C39.6644 51.6368 43.7925 47.3021 43.7925 41.955C43.7925 39.4752 42.9046 37.2131 41.4444 35.5002ZM37.6446 41.9542C37.6446 43.7364 36.2686 45.1812 34.5713 45.1812C32.874 45.1812 31.498 43.7364 31.498 41.9542C31.498 40.1719 32.874 38.7271 34.5713 38.7271C36.2686 38.7271 37.6446 40.1719 37.6446 41.9542ZM34.5713 32.2715C36.2686 32.2715 37.6446 30.8267 37.6446 29.0445C37.6446 27.2622 36.2686 25.8174 34.5713 25.8174C32.874 25.8174 31.498 27.2622 31.498 29.0445C31.498 30.8267 32.874 32.2715 34.5713 32.2715Z" fill="#007AFF"/>
</svg>
