<svg width="72" height="71" viewBox="0 0 72 71" fill="none" xmlns="http://www.w3.org/2000/svg">
<path fill-rule="evenodd" clip-rule="evenodd" d="M13.2593 42.4096C16.717 42.4096 20.0367 41.8185 23.1228 40.7319C25.9124 32.1538 32.6915 25.3755 41.2702 22.5872C42.3578 19.4999 42.9494 16.1788 42.9494 12.7195C42.9494 8.93896 42.2428 5.32346 40.9545 1.99786C37.6268 0.707671 34.0087 0 30.2253 0C13.8279 0 0.535156 13.2927 0.535156 29.6901C0.535156 33.4706 1.24175 37.0861 2.53008 40.4117C5.85777 41.7019 9.47588 42.4096 13.2593 42.4096ZM11.7454 26.2074L26.7411 11.2117L31.7396 16.2103L16.744 31.2059L11.7454 26.2074ZM0.535175 60.0859C0.535175 65.942 5.28254 70.6894 11.1387 70.6894C16.9949 70.6894 21.7423 65.942 21.7423 60.0859C21.7423 54.2297 16.9949 49.4823 11.1387 49.4823C5.28254 49.4823 0.535175 54.2297 0.535175 60.0859ZM71.1562 47.7536C70.0313 47.5541 68.8734 47.45 67.6912 47.45C56.8073 47.45 47.9841 56.2731 47.9841 67.157C47.9841 68.3391 48.0882 69.4967 48.2877 70.6215C48.8586 70.6676 49.4359 70.6911 50.0187 70.6911C61.7311 70.6911 71.2258 61.1964 71.2258 49.484C71.2258 48.9014 71.2023 48.3243 71.1562 47.7536ZM46.7365 70.4387C37.6522 69.0272 30.4752 61.85 29.064 52.7656C30.1338 52.9318 31.23 53.0181 32.3464 53.0181C44.0587 53.0181 53.5534 43.5234 53.5534 31.811C53.5534 30.6949 53.4672 29.599 53.3011 28.5294C62.3853 29.9409 69.5623 37.1181 70.9734 46.2024C69.9037 46.0362 68.8075 45.95 67.6912 45.95C55.9789 45.95 46.4841 55.4447 46.4841 67.157C46.4841 68.2732 46.5704 69.3691 46.7365 70.4387ZM50.0187 28.277C50.6016 28.277 51.1789 28.3005 51.7499 28.3466C51.9494 29.4713 52.0534 30.629 52.0534 31.811C52.0534 42.6949 43.2303 51.5181 32.3464 51.5181C31.1641 51.5181 30.0062 51.414 28.8812 51.2145C28.8351 50.6437 28.8116 50.0666 28.8116 49.484C28.8116 37.7717 38.3064 28.277 50.0187 28.277Z" fill="#007AFF"/>
</svg>
